<?xml version="1.0" encoding="utf-8" ?>
<svg baseProfile="full" height="11in" version="1.1" width="8.5in" xmlns="http://www.w3.org/2000/svg" xmlns:ev="http://www.w3.org/2001/xml-events" xmlns:xlink="http://www.w3.org/1999/xlink"><defs><g id="cut_lines"><line stroke="black" stroke-width="1" x1="26.0mm" x2="26.0mm" y1="25mm" y2="233mm" /><line stroke="black" stroke-width="1" x1="34.5mm" x2="34.5mm" y1="25mm" y2="233mm" /><line stroke="black" stroke-width="1" x1="36.5mm" x2="36.5mm" y1="25mm" y2="233mm" /><line stroke="black" stroke-width="1" x1="45.0mm" x2="45.0mm" y1="25mm" y2="233mm" /><line stroke="black" stroke-width="1" x1="47.0mm" x2="47.0mm" y1="25mm" y2="233mm" /><line stroke="black" stroke-width="1" x1="55.5mm" x2="55.5mm" y1="25mm" y2="233mm" /><line stroke="black" stroke-width="1" x1="57.5mm" x2="57.5mm" y1="25mm" y2="233mm" /><line stroke="black" stroke-width="1" x1="66.0mm" x2="66.0mm" y1="25mm" y2="233mm" /><line stroke="black" stroke-width="1" x1="68.0mm" x2="68.0mm" y1="25mm" y2="233mm" /><line stroke="black" stroke-width="1" x1="76.5mm" x2="76.5mm" y1="25mm" y2="233mm" /><line stroke="black" stroke-width="1" x1="78.5mm" x2="78.5mm" y1="25mm" y2="233mm" /><line stroke="black" stroke-width="1" x1="87.0mm" x2="87.0mm" y1="25mm" y2="233mm" /><line stroke="black" stroke-width="1" x1="89.0mm" x2="89.0mm" y1="25mm" y2="233mm" /><line stroke="black" stroke-width="1" x1="97.5mm" x2="97.5mm" y1="25mm" y2="233mm" /><line stroke="black" stroke-width="1" x1="99.5mm" x2="99.5mm" y1="25mm" y2="233mm" /><line stroke="black" stroke-width="1" x1="108.0mm" x2="108.0mm" y1="25mm" y2="233mm" /><line stroke="black" stroke-width="1" x1="110.0mm" x2="110.0mm" y1="25mm" y2="233mm" /><line stroke="black" stroke-width="1" x1="118.5mm" x2="118.5mm" y1="25mm" y2="233mm" /><line stroke="black" stroke-width="1" x1="120.5mm" x2="120.5mm" y1="25mm" y2="233mm" /><line stroke="black" stroke-width="1" x1="129.0mm" x2="129.0mm" y1="25mm" y2="233mm" /><line stroke="black" stroke-width="1" x1="131.0mm" x2="131.0mm" y1="25mm" y2="233mm" /><line stroke="black" stroke-width="1" x1="139.5mm" x2="139.5mm" y1="25mm" y2="233mm" /><line stroke="black" stroke-width="1" x1="141.5mm" x2="141.5mm" y1="25mm" y2="233mm" /><line stroke="black" stroke-width="1" x1="150.0mm" x2="150.0mm" y1="25mm" y2="233mm" /><line stroke="black" stroke-width="1" x1="152.0mm" x2="152.0mm" y1="25mm" y2="233mm" /><line stroke="black" stroke-width="1" x1="160.5mm" x2="160.5mm" y1="25mm" y2="233mm" /><line stroke="black" stroke-width="1" x1="162.5mm" x2="162.5mm" y1="25mm" y2="233mm" /><line stroke="black" stroke-width="1" x1="171.0mm" x2="171.0mm" y1="25mm" y2="233mm" /><line stroke="black" stroke-width="1" x1="173.0mm" x2="173.0mm" y1="25mm" y2="233mm" /><line stroke="black" stroke-width="1" x1="181.5mm" x2="181.5mm" y1="25mm" y2="233mm" /><line stroke="black" stroke-width="1" x1="25mm" x2="182.5mm" y1="26mm" y2="26mm" /><line stroke="black" stroke-width="1" x1="25mm" x2="182.5mm" y1="50mm" y2="50mm" /><line stroke="black" stroke-width="1" x1="25mm" x2="182.5mm" y1="52mm" y2="52mm" /><line stroke="black" stroke-width="1" x1="25mm" x2="182.5mm" y1="76mm" y2="76mm" /><line stroke="black" stroke-width="1" x1="25mm" x2="182.5mm" y1="78mm" y2="78mm" /><line stroke="black" stroke-width="1" x1="25mm" x2="182.5mm" y1="102mm" y2="102mm" /><line stroke="black" stroke-width="1" x1="25mm" x2="182.5mm" y1="104mm" y2="104mm" /><line stroke="black" stroke-width="1" x1="25mm" x2="182.5mm" y1="128mm" y2="128mm" /><line stroke="black" stroke-width="1" x1="25mm" x2="182.5mm" y1="130mm" y2="130mm" /><line stroke="black" stroke-width="1" x1="25mm" x2="182.5mm" y1="154mm" y2="154mm" /><line stroke="black" stroke-width="1" x1="25mm" x2="182.5mm" y1="156mm" y2="156mm" /><line stroke="black" stroke-width="1" x1="25mm" x2="182.5mm" y1="180mm" y2="180mm" /><line stroke="black" stroke-width="1" x1="25mm" x2="182.5mm" y1="182mm" y2="182mm" /><line stroke="black" stroke-width="1" x1="25mm" x2="182.5mm" y1="206mm" y2="206mm" /><line stroke="black" stroke-width="1" x1="25mm" x2="182.5mm" y1="208mm" y2="208mm" /><line stroke="black" stroke-width="1" x1="25mm" x2="182.5mm" y1="232mm" y2="232mm" /></g></defs><g id="cut_lines"><line stroke="black" stroke-width="1" x1="26.0mm" x2="26.0mm" y1="25mm" y2="233mm" /><line stroke="black" stroke-width="1" x1="34.5mm" x2="34.5mm" y1="25mm" y2="233mm" /><line stroke="black" stroke-width="1" x1="36.5mm" x2="36.5mm" y1="25mm" y2="233mm" /><line stroke="black" stroke-width="1" x1="45.0mm" x2="45.0mm" y1="25mm" y2="233mm" /><line stroke="black" stroke-width="1" x1="47.0mm" x2="47.0mm" y1="25mm" y2="233mm" /><line stroke="black" stroke-width="1" x1="55.5mm" x2="55.5mm" y1="25mm" y2="233mm" /><line stroke="black" stroke-width="1" x1="57.5mm" x2="57.5mm" y1="25mm" y2="233mm" /><line stroke="black" stroke-width="1" x1="66.0mm" x2="66.0mm" y1="25mm" y2="233mm" /><line stroke="black" stroke-width="1" x1="68.0mm" x2="68.0mm" y1="25mm" y2="233mm" /><line stroke="black" stroke-width="1" x1="76.5mm" x2="76.5mm" y1="25mm" y2="233mm" /><line stroke="black" stroke-width="1" x1="78.5mm" x2="78.5mm" y1="25mm" y2="233mm" /><line stroke="black" stroke-width="1" x1="87.0mm" x2="87.0mm" y1="25mm" y2="233mm" /><line stroke="black" stroke-width="1" x1="89.0mm" x2="89.0mm" y1="25mm" y2="233mm" /><line stroke="black" stroke-width="1" x1="97.5mm" x2="97.5mm" y1="25mm" y2="233mm" /><line stroke="black" stroke-width="1" x1="99.5mm" x2="99.5mm" y1="25mm" y2="233mm" /><line stroke="black" stroke-width="1" x1="108.0mm" x2="108.0mm" y1="25mm" y2="233mm" /><line stroke="black" stroke-width="1" x1="110.0mm" x2="110.0mm" y1="25mm" y2="233mm" /><line stroke="black" stroke-width="1" x1="118.5mm" x2="118.5mm" y1="25mm" y2="233mm" /><line stroke="black" stroke-width="1" x1="120.5mm" x2="120.5mm" y1="25mm" y2="233mm" /><line stroke="black" stroke-width="1" x1="129.0mm" x2="129.0mm" y1="25mm" y2="233mm" /><line stroke="black" stroke-width="1" x1="131.0mm" x2="131.0mm" y1="25mm" y2="233mm" /><line stroke="black" stroke-width="1" x1="139.5mm" x2="139.5mm" y1="25mm" y2="233mm" /><line stroke="black" stroke-width="1" x1="141.5mm" x2="141.5mm" y1="25mm" y2="233mm" /><line stroke="black" stroke-width="1" x1="150.0mm" x2="150.0mm" y1="25mm" y2="233mm" /><line stroke="black" stroke-width="1" x1="152.0mm" x2="152.0mm" y1="25mm" y2="233mm" /><line stroke="black" stroke-width="1" x1="160.5mm" x2="160.5mm" y1="25mm" y2="233mm" /><line stroke="black" stroke-width="1" x1="162.5mm" x2="162.5mm" y1="25mm" y2="233mm" /><line stroke="black" stroke-width="1" x1="171.0mm" x2="171.0mm" y1="25mm" y2="233mm" /><line stroke="black" stroke-width="1" x1="173.0mm" x2="173.0mm" y1="25mm" y2="233mm" /><line stroke="black" stroke-width="1" x1="181.5mm" x2="181.5mm" y1="25mm" y2="233mm" /><line stroke="black" stroke-width="1" x1="25mm" x2="182.5mm" y1="26mm" y2="26mm" /><line stroke="black" stroke-width="1" x1="25mm" x2="182.5mm" y1="50mm" y2="50mm" /><line stroke="black" stroke-width="1" x1="25mm" x2="182.5mm" y1="52mm" y2="52mm" /><line stroke="black" stroke-width="1" x1="25mm" x2="182.5mm" y1="76mm" y2="76mm" /><line stroke="black" stroke-width="1" x1="25mm" x2="182.5mm" y1="78mm" y2="78mm" /><line stroke="black" stroke-width="1" x1="25mm" x2="182.5mm" y1="102mm" y2="102mm" /><line stroke="black" stroke-width="1" x1="25mm" x2="182.5mm" y1="104mm" y2="104mm" /><line stroke="black" stroke-width="1" x1="25mm" x2="182.5mm" y1="128mm" y2="128mm" /><line stroke="black" stroke-width="1" x1="25mm" x2="182.5mm" y1="130mm" y2="130mm" /><line stroke="black" stroke-width="1" x1="25mm" x2="182.5mm" y1="154mm" y2="154mm" /><line stroke="black" stroke-width="1" x1="25mm" x2="182.5mm" y1="156mm" y2="156mm" /><line stroke="black" stroke-width="1" x1="25mm" x2="182.5mm" y1="180mm" y2="180mm" /><line stroke="black" stroke-width="1" x1="25mm" x2="182.5mm" y1="182mm" y2="182mm" /><line stroke="black" stroke-width="1" x1="25mm" x2="182.5mm" y1="206mm" y2="206mm" /><line stroke="black" stroke-width="1" x1="25mm" x2="182.5mm" y1="208mm" y2="208mm" /><line stroke="black" stroke-width="1" x1="25mm" x2="182.5mm" y1="232mm" y2="232mm" /></g></svg>